<?xml version="1.0" encoding="iso-8859-1"?>
<!-- Generator: Adobe Illustrator 19.0.0, SVG Export Plug-In . SVG Version: 6.00 Build 0)  -->
<svg xmlns="http://www.w3.org/2000/svg" xmlns:xlink="http://www.w3.org/1999/xlink" version="1.1" id="Capa_1" x="0px" y="0px" viewBox="0 0 512.001 512.001" style="enable-background:new 0 0 512.001 512.001;" xml:space="preserve" width="512px" height="512px">
<g>
	<g>
		<path d="M487.625,31.809h-83.536c-4.143,0-7.5,3.357-7.5,7.5c0,4.143,3.357,7.5,7.5,7.5h83.536c5.169,0,9.375,4.206,9.375,9.377    v280.043H122.5V46.809h247.411c4.143,0,7.5-3.357,7.5-7.5s-3.357-7.5-7.5-7.5H24.376C10.935,31.809,0,42.744,0,56.186v322.758    c0,17.964,14.614,32.578,32.578,32.578h102.333c4.143,0,7.5-3.357,7.5-7.5s-3.357-7.5-7.5-7.5H32.578    c-9.692,0-17.578-7.886-17.578-17.578v-27.715h482v27.715c0,9.692-7.886,17.578-17.578,17.578H169.089c-4.143,0-7.5,3.357-7.5,7.5    s3.357,7.5,7.5,7.5h44.381c-0.328,0.964-0.663,1.918-1.015,2.848c-5.563,14.712-13.878,24.825-24.709,30.055    c-6.492,3.127-10.525,9.471-10.525,16.557v0.92c0,10.086,8.209,18.291,18.3,18.291h57.392c4.143,0,7.5-3.357,7.5-7.5    s-3.357-7.5-7.5-7.5H195.52c-1.819,0-3.3-1.477-3.3-3.291v-0.92c0-1.272,0.779-2.438,2.041-3.046    c14.415-6.96,25.257-19.832,32.224-38.259c0.99-2.615,1.895-5.35,2.708-8.154h53.626c0.814,2.807,1.719,5.542,2.707,8.152    c6.97,18.434,17.813,31.307,32.225,38.261c1.253,0.605,2.031,1.772,2.031,3.046v0.92c0,1.814-1.476,3.291-3.29,3.291h-29.401    c-4.143,0-7.5,3.357-7.5,7.5s3.357,7.5,7.5,7.5h29.401c10.085,0,18.29-8.205,18.29-18.291v-0.92    c0-7.08-4.027-13.424-10.512-16.555c-10.834-5.228-19.149-15.34-24.714-30.059c-0.351-0.928-0.687-1.882-1.014-2.846h180.881    c17.964,0,32.578-14.614,32.578-32.578V56.186C512,42.744,501.065,31.809,487.625,31.809z M107.5,336.229H15V56.186    c0-5.171,4.206-9.377,9.376-9.377H107.5V336.229z" fill="#e8a93f"/>
	</g>
</g>
<g>
	<g>
		<path d="M462.907,84.091H429.76c-7.557,0-13.705,6.148-13.705,13.706v203.814c0,4.143,3.357,7.5,7.5,7.5h45.557    c4.143,0,7.5-3.357,7.5-7.5V97.797C476.612,90.239,470.464,84.091,462.907,84.091z M461.613,294.111h-30.558v0V125.666h30.558    V294.111z M461.613,110.666h-30.558V99.091h30.558V110.666z" fill="#e8a93f"/>
	</g>
</g>
<g>
	<g>
		<path d="M448.75,135.915h-4.833c-4.143,0-7.5,3.357-7.5,7.5s3.357,7.5,7.5,7.5h4.833c4.143,0,7.5-3.357,7.5-7.5    S452.893,135.915,448.75,135.915z" fill="#e8a93f"/>
	</g>
</g>
<g>
	<g>
		<path d="M448.75,161.794h-4.833c-4.143,0-7.5,3.357-7.5,7.5s3.357,7.5,7.5,7.5h4.833c4.143,0,7.5-3.357,7.5-7.5    S452.893,161.794,448.75,161.794z" fill="#e8a93f"/>
	</g>
</g>
<g>
	<g>
		<path d="M448.75,187.673h-4.833c-4.143,0-7.5,3.357-7.5,7.5s3.357,7.5,7.5,7.5h4.833c4.143,0,7.5-3.357,7.5-7.5    S452.893,187.673,448.75,187.673z" fill="#e8a93f"/>
	</g>
</g>
<g>
	<g>
		<path d="M448.75,213.551h-4.833c-4.143,0-7.5,3.357-7.5,7.5s3.357,7.5,7.5,7.5h4.833c4.143,0,7.5-3.357,7.5-7.5    S452.893,213.551,448.75,213.551z" fill="#e8a93f"/>
	</g>
</g>
<g>
	<g>
		<path d="M448.75,239.43h-4.833c-4.143,0-7.5,3.357-7.5,7.5s3.357,7.5,7.5,7.5h4.833c4.143,0,7.5-3.357,7.5-7.5    S452.893,239.43,448.75,239.43z" fill="#e8a93f"/>
	</g>
</g>
<g>
	<g>
		<path d="M448.75,265.309h-4.833c-4.143,0-7.5,3.357-7.5,7.5s3.357,7.5,7.5,7.5h4.833c4.143,0,7.5-3.357,7.5-7.5    S452.893,265.309,448.75,265.309z" fill="#e8a93f"/>
	</g>
</g>
<g>
	<g>
		<path d="M51.461,94.479H40.976c-4.143,0-7.5,3.357-7.5,7.5s3.357,7.5,7.5,7.5h10.485c4.143,0,7.5-3.357,7.5-7.5    S55.604,94.479,51.461,94.479z" fill="#e8a93f"/>
	</g>
</g>
<g>
	<g>
		<path d="M81.525,120.982H40.976c-4.143,0-7.5,3.357-7.5,7.5c0,4.143,3.357,7.5,7.5,7.5h40.549c4.143,0,7.5-3.357,7.5-7.5    C89.025,124.339,85.668,120.982,81.525,120.982z" fill="#e8a93f"/>
	</g>
</g>
<g>
	<g>
		<path d="M81.524,139.271H40.976c-4.143,0-7.5,3.357-7.5,7.5s3.357,7.5,7.5,7.5h40.549c4.143,0,7.5-3.357,7.5-7.5    S85.667,139.271,81.524,139.271z" fill="#e8a93f"/>
	</g>
</g>
<g>
	<g>
		<path d="M81.524,157.56H40.976c-4.143,0-7.5,3.357-7.5,7.5s3.357,7.5,7.5,7.5h40.549c4.143,0,7.5-3.357,7.5-7.5    S85.667,157.56,81.524,157.56z" fill="#e8a93f"/>
	</g>
</g>
<g>
	<g>
		<path d="M51.461,205.959H40.976c-4.143,0-7.5,3.357-7.5,7.5s3.357,7.5,7.5,7.5h10.485c4.143,0,7.5-3.357,7.5-7.5    S55.604,205.959,51.461,205.959z" fill="#e8a93f"/>
	</g>
</g>
<g>
	<g>
		<path d="M81.524,232.464H40.976c-4.143,0-7.5,3.357-7.5,7.5s3.357,7.5,7.5,7.5h40.549c4.143,0,7.5-3.357,7.5-7.5    S85.667,232.464,81.524,232.464z" fill="#e8a93f"/>
	</g>
</g>
<g>
	<g>
		<path d="M81.524,250.752H40.976c-4.143,0-7.5,3.357-7.5,7.5s3.357,7.5,7.5,7.5h40.549c4.143,0,7.5-3.357,7.5-7.5    S85.667,250.752,81.524,250.752z" fill="#e8a93f"/>
	</g>
</g>
<g>
	<g>
		<path d="M81.524,269.04H40.976c-4.143,0-7.5,3.357-7.5,7.5s3.357,7.5,7.5,7.5h40.549c4.143,0,7.5-3.357,7.5-7.5    S85.667,269.04,81.524,269.04z" fill="#e8a93f"/>
	</g>
</g>
<g>
	<g>
		<path d="M387.825,186.587l-37.486-22.739c-0.019-0.012-0.038-0.024-0.057-0.035l-39.436-23.921    c-0.003-0.002-0.006-0.004-0.009-0.006l-37.31-22.632c-2.391-1.451-5.389-1.451-7.779,0l-37.306,22.63    c-0.008,0.004-0.015,0.009-0.023,0.014l-39.42,23.912c-0.024,0.014-0.048,0.03-0.072,0.044l-37.477,22.733    c-2.241,1.359-3.61,3.791-3.61,6.412c0,2.621,1.369,5.053,3.61,6.412l114.298,69.332c1.195,0.726,2.542,1.088,3.89,1.088    s2.694-0.362,3.89-1.088l114.297-69.332c2.241-1.359,3.61-3.791,3.61-6.412C391.435,190.378,390.066,187.946,387.825,186.587z     M332.056,170.301l-22.957,13.926l-25.001-15.165l22.958-13.926L332.056,170.301z M294.637,192.998l-25,15.165l-25-15.165    l25-15.165L294.637,192.998z M269.638,132.438l22.958,13.926l-22.958,13.926l-22.958-13.926L269.638,132.438z M232.219,155.136    l22.958,13.926l-25,15.164L207.22,170.3L232.219,155.136z M169.801,192.998l22.958-13.926l22.958,13.926l-22.958,13.926    L169.801,192.998z M207.219,215.695l22.958-13.926l25,15.165l-22.958,13.926L207.219,215.695z M269.638,253.558l-22.958-13.926    l22.958-13.926l22.958,13.926L269.638,253.558z M307.056,230.86l-22.958-13.926l25-15.165l22.958,13.926L307.056,230.86z     M346.516,206.924l-22.958-13.926l22.957-13.926l22.958,13.926L346.516,206.924z" fill="#e8a93f"/>
	</g>
</g>
<g>
	<g>
		<path d="M330.264,252.904H323.5c-4.143,0-7.5,3.357-7.5,7.5s3.357,7.5,7.5,7.5h6.764c4.143,0,7.5-3.357,7.5-7.5    S334.407,252.904,330.264,252.904z" fill="#e8a93f"/>
	</g>
</g>
<g>
	<g>
		<path d="M366,272.151h-42.5c-4.143,0-7.5,3.357-7.5,7.5s3.357,7.5,7.5,7.5H366c4.143,0,7.5-3.357,7.5-7.5    S370.143,272.151,366,272.151z" fill="#e8a93f"/>
	</g>
</g>
<g>
</g>
<g>
</g>
<g>
</g>
<g>
</g>
<g>
</g>
<g>
</g>
<g>
</g>
<g>
</g>
<g>
</g>
<g>
</g>
<g>
</g>
<g>
</g>
<g>
</g>
<g>
</g>
<g>
</g>
</svg>
