<?xml version="1.0"?>
<svg xmlns="http://www.w3.org/2000/svg" height="512px" viewBox="0 0 512 512" width="512px"><path d="m452 0h-80c-33.085938 0-60 26.914062-60 60v20h-20c-11.046875 0-20 8.953125-20 20s8.953125 20 20 20h20v20c0 33.085938 26.914062 60 60 60h20v22c0 11.046875 8.953125 20 20 20s20-8.953125 20-20v-22h20c33.085938 0 60-26.914062 60-60v-80c0-33.085938-26.914062-60-60-60zm20 140c0 11.027344-8.972656 20-20 20h-80c-11.027344 0-20-8.972656-20-20v-20h40c11.046875 0 20-8.953125 20-20s-8.953125-20-20-20h-40v-20c0-11.027344 8.972656-20 20-20h80c11.027344 0 20 8.972656 20 20zm-20 172h-20v-20c0-11.046875-8.953125-20-20-20s-20 8.953125-20 20v20h-20c-33.085938 0-60 26.914062-60 60v20h-22c-11.046875 0-20 8.953125-20 20s8.953125 20 20 20h22v20c0 33.085938 26.914062 60 60 60h80c33.085938 0 60-26.914062 60-60v-80c0-33.085938-26.914062-60-60-60zm20 140c0 11.027344-8.972656 20-20 20h-80c-11.027344 0-20-8.972656-20-20v-80c0-11.027344 8.972656-20 20-20h20v40c0 11.046875 8.953125 20 20 20s20-8.953125 20-20v-40h20c11.027344 0 20 8.972656 20 20zm-250-372h-22v-20c0-33.085938-26.914062-60-60-60h-80c-33.085938 0-60 26.914062-60 60v80c0 33.085938 26.914062 60 60 60h21v19c0 11.046875 8.953125 20 20 20s20-8.953125 20-20v-19h19c33.085938 0 60-26.914062 60-60v-20h22c11.046875 0 20-8.953125 20-20s-8.953125-20-20-20zm-62 60c0 11.027344-8.972656 20-20 20h-19v-41c0-11.046875-8.953125-20-20-20s-20 8.953125-20 20v41h-21c-11.027344 0-20-8.972656-20-20v-80c0-11.027344 8.972656-20 20-20h80c11.027344 0 20 8.972656 20 20zm60 252h-20v-20c0-33.085938-26.914062-60-60-60h-19v-23c0-11.046875-8.953125-20-20-20s-20 8.953125-20 20v23h-21c-33.085938 0-60 26.914062-60 60v80c0 33.085938 26.914062 60 60 60h80c33.085938 0 60-26.914062 60-60v-20h20c11.046875 0 20-8.953125 20-20s-8.953125-20-20-20zm-60 60c0 11.027344-8.972656 20-20 20h-80c-11.027344 0-20-8.972656-20-20v-80c0-11.027344 8.972656-20 20-20h80c11.027344 0 20 8.972656 20 20v20h-40c-11.046875 0-20 8.953125-20 20s8.953125 20 20 20h40zm0 0" fill="#0a1237"/></svg>
