<?xml version="1.0"?>
<svg xmlns="http://www.w3.org/2000/svg" height="512px" viewBox="-20 -20 640 640" width="512px"><path d="m420 420h40v40h-40zm0 0" fill="#0a1237"/><path d="m280 420h40v40h-40zm0 0" fill="#0a1237"/><path d="m420 140h40v40h-40zm0 0" fill="#0a1237"/><path d="m140 140h40v40h-40zm0 0" fill="#0a1237"/><path d="m280 290h40v40h-40zm0 0" fill="#0a1237"/><path d="m280 140h40v40h-40zm0 0" fill="#0a1237"/><path d="m420 290h40v40h-40zm0 0" fill="#0a1237"/><path d="m520 70h-440c-5.523438 0-10 4.476562-10 10v440c0 5.523438 4.476562 10 10 10h440c5.523438 0 10-4.476562 10-10v-440c0-5.523438-4.476562-10-10-10zm-320 400c0 5.523438-4.476562 10-10 10h-60c-5.523438 0-10-4.476562-10-10v-60c0-5.523438 4.476562-10 10-10h60c5.523438 0 10 4.476562 10 10zm0-130c0 5.523438-4.476562 10-10 10h-60c-5.523438 0-10-4.476562-10-10v-60c0-5.523438 4.476562-10 10-10h60c5.523438 0 10 4.476562 10 10zm0-150c0 5.523438-4.476562 10-10 10h-60c-5.523438 0-10-4.476562-10-10v-60c0-5.523438 4.476562-10 10-10h60c5.523438 0 10 4.476562 10 10zm140 280c0 5.523438-4.476562 10-10 10h-60c-5.523438 0-10-4.476562-10-10v-60c0-5.523438 4.476562-10 10-10h60c5.523438 0 10 4.476562 10 10zm0-130c0 5.523438-4.476562 10-10 10h-60c-5.523438 0-10-4.476562-10-10v-60c0-5.523438 4.476562-10 10-10h60c5.523438 0 10 4.476562 10 10zm0-150c0 5.523438-4.476562 10-10 10h-60c-5.523438 0-10-4.476562-10-10v-60c0-5.523438 4.476562-10 10-10h60c5.523438 0 10 4.476562 10 10zm140 280c0 5.523438-4.476562 10-10 10h-60c-5.523438 0-10-4.476562-10-10v-60c0-5.523438 4.476562-10 10-10h60c5.523438 0 10 4.476562 10 10zm0-130c0 5.523438-4.476562 10-10 10h-60c-5.523438 0-10-4.476562-10-10v-60c0-5.523438 4.476562-10 10-10h60c5.523438 0 10 4.476562 10 10zm0-150c0 5.523438-4.476562 10-10 10h-60c-5.523438 0-10-4.476562-10-10v-60c0-5.523438 4.476562-10 10-10h60c5.523438 0 10 4.476562 10 10zm0 0" fill="#0a1237"/><path d="m140 420h40v40h-40zm0 0" fill="#0a1237"/><path d="m140 290h40v40h-40zm0 0" fill="#0a1237"/><path d="m290 0h20v60h-20zm0 0" fill="#0a1237"/><path d="m246 60h20c.0625-7.867188-2.867188-15.464844-8.191406-21.25-2.414063-2.269531-3.785156-5.433594-3.785156-8.75s1.371093-6.480469 3.785156-8.75c5.324218-5.785156 8.253906-13.382812 8.191406-21.25h-20c.019531 3.324219-1.359375 6.5-3.808594 8.75-5.324218 5.785156-8.253906 13.382812-8.191406 21.25-.0625 7.867188 2.867188 15.464844 8.191406 21.25 2.449219 2.25 3.828125 5.425781 3.808594 8.75zm0 0" fill="#0a1237"/><path d="m196 60h20c.0625-7.867188-2.867188-15.464844-8.191406-21.25-2.414063-2.269531-3.785156-5.433594-3.785156-8.75s1.371093-6.480469 3.785156-8.75c5.324218-5.785156 8.253906-13.382812 8.191406-21.25h-20c.019531 3.324219-1.359375 6.5-3.808594 8.75-5.324218 5.785156-8.253906 13.382812-8.191406 21.25-.0625 7.867188 2.867188 15.464844 8.191406 21.25 2.449219 2.25 3.828125 5.425781 3.808594 8.75zm0 0" fill="#0a1237"/><path d="m146 60h20c.0625-7.867188-2.867188-15.464844-8.191406-21.25-2.414063-2.269531-3.785156-5.433594-3.785156-8.75s1.371093-6.480469 3.785156-8.75c5.324218-5.785156 8.253906-13.382812 8.191406-21.25h-20c.019531 3.324219-1.359375 6.5-3.808594 8.75-5.324218 5.785156-8.253906 13.382812-8.191406 21.25-.0625 7.867188 2.867188 15.464844 8.191406 21.25 2.449219 2.25 3.828125 5.425781 3.808594 8.75zm0 0" fill="#0a1237"/><path d="m96 60h20c.0625-7.867188-2.867188-15.464844-8.191406-21.25-2.414063-2.269531-3.785156-5.433594-3.785156-8.75s1.371093-6.480469 3.785156-8.75c5.324218-5.785156 8.253906-13.382812 8.191406-21.25h-20c.019531 3.324219-1.359375 6.5-3.808594 8.75-5.324218 5.785156-8.253906 13.382812-8.191406 21.25-.0625 7.867188 2.867188 15.464844 8.191406 21.25 2.449219 2.25 3.828125 5.425781 3.808594 8.75zm0 0" fill="#0a1237"/><path d="m484 60h20c-.019531-3.324219 1.359375-6.5 3.808594-8.75 5.324218-5.785156 8.253906-13.382812 8.191406-21.25.0625-7.867188-2.867188-15.464844-8.191406-21.25-2.449219-2.25-3.828125-5.425781-3.808594-8.75h-20c-.0625 7.867188 2.867188 15.464844 8.191406 21.25 2.414063 2.269531 3.785156 5.433594 3.785156 8.75s-1.371093 6.480469-3.785156 8.75c-5.324218 5.785156-8.253906 13.382812-8.191406 21.25zm0 0" fill="#0a1237"/><path d="m434 60h20c-.019531-3.324219 1.359375-6.5 3.808594-8.75 5.324218-5.785156 8.253906-13.382812 8.191406-21.25.0625-7.867188-2.867188-15.464844-8.191406-21.25-2.449219-2.25-3.828125-5.425781-3.808594-8.75h-20c-.0625 7.867188 2.867188 15.464844 8.191406 21.25 2.414063 2.269531 3.785156 5.433594 3.785156 8.75s-1.371093 6.480469-3.785156 8.75c-5.324218 5.785156-8.253906 13.382812-8.191406 21.25zm0 0" fill="#0a1237"/><path d="m384 60h20c-.019531-3.324219 1.359375-6.5 3.808594-8.75 5.324218-5.785156 8.253906-13.382812 8.191406-21.25.0625-7.867188-2.867188-15.464844-8.191406-21.25-2.449219-2.25-3.828125-5.425781-3.808594-8.75h-20c-.0625 7.867188 2.867188 15.464844 8.191406 21.25 2.414063 2.269531 3.785156 5.433594 3.785156 8.75s-1.371093 6.480469-3.785156 8.75c-5.324218 5.785156-8.253906 13.382812-8.191406 21.25zm0 0" fill="#0a1237"/><path d="m334 60h20c-.019531-3.324219 1.359375-6.5 3.808594-8.75 5.324218-5.785156 8.253906-13.382812 8.191406-21.25.0625-7.867188-2.867188-15.464844-8.191406-21.25-2.449219-2.25-3.828125-5.425781-3.808594-8.75h-20c-.0625 7.867188 2.867188 15.464844 8.191406 21.25 2.414063 2.269531 3.785156 5.433594 3.785156 8.75s-1.371093 6.480469-3.785156 8.75c-5.324218 5.785156-8.253906 13.382812-8.191406 21.25zm0 0" fill="#0a1237"/><path d="m290 540h20v60h-20zm0 0" fill="#0a1237"/><path d="m266 540h-20c.019531 3.324219-1.359375 6.5-3.808594 8.75-10.921875 12.0625-10.921875 30.4375 0 42.5 2.449219 2.25 3.828125 5.425781 3.808594 8.75h20c.0625-7.867188-2.867188-15.464844-8.191406-21.25-2.414063-2.269531-3.785156-5.433594-3.785156-8.75s1.371093-6.480469 3.785156-8.75c5.324218-5.785156 8.253906-13.382812 8.191406-21.25zm0 0" fill="#0a1237"/><path d="m216 540h-20c.019531 3.324219-1.359375 6.5-3.808594 8.75-10.921875 12.0625-10.921875 30.4375 0 42.5 2.449219 2.25 3.828125 5.425781 3.808594 8.75h20c.0625-7.867188-2.867188-15.464844-8.191406-21.25-2.414063-2.269531-3.785156-5.433594-3.785156-8.75s1.371093-6.480469 3.785156-8.75c5.324218-5.785156 8.253906-13.382812 8.191406-21.25zm0 0" fill="#0a1237"/><path d="m166 540h-20c.019531 3.324219-1.359375 6.5-3.808594 8.75-10.921875 12.0625-10.921875 30.4375 0 42.5 2.449219 2.25 3.828125 5.425781 3.808594 8.75h20c.0625-7.867188-2.867188-15.464844-8.191406-21.25-2.414063-2.269531-3.785156-5.433594-3.785156-8.75s1.371093-6.480469 3.785156-8.75c5.324218-5.785156 8.253906-13.382812 8.191406-21.25zm0 0" fill="#0a1237"/><path d="m116 540h-20c.019531 3.324219-1.359375 6.5-3.808594 8.75-10.921875 12.0625-10.921875 30.4375 0 42.5 2.449219 2.25 3.828125 5.425781 3.808594 8.75h20c.0625-7.867188-2.867188-15.464844-8.191406-21.25-2.414063-2.269531-3.785156-5.433594-3.785156-8.75s1.371093-6.480469 3.785156-8.75c5.324218-5.785156 8.253906-13.382812 8.191406-21.25zm0 0" fill="#0a1237"/><path d="m504 540h-20c-.0625 7.867188 2.867188 15.464844 8.191406 21.25 2.414063 2.269531 3.785156 5.433594 3.785156 8.75s-1.371093 6.480469-3.785156 8.75c-5.324218 5.785156-8.253906 13.382812-8.191406 21.25h20c-.019531-3.324219 1.359375-6.5 3.808594-8.75 10.921875-12.0625 10.921875-30.4375 0-42.5-2.449219-2.25-3.828125-5.425781-3.808594-8.75zm0 0" fill="#0a1237"/><path d="m454 540h-20c-.0625 7.867188 2.867188 15.464844 8.191406 21.25 2.414063 2.269531 3.785156 5.433594 3.785156 8.75s-1.371093 6.480469-3.785156 8.75c-5.324218 5.785156-8.253906 13.382812-8.191406 21.25h20c-.019531-3.324219 1.359375-6.5 3.808594-8.75 10.921875-12.0625 10.921875-30.4375 0-42.5-2.449219-2.25-3.828125-5.425781-3.808594-8.75zm0 0" fill="#0a1237"/><path d="m404 540h-20c-.0625 7.867188 2.867188 15.464844 8.191406 21.25 2.414063 2.269531 3.785156 5.433594 3.785156 8.75s-1.371093 6.480469-3.785156 8.75c-5.324218 5.785156-8.253906 13.382812-8.191406 21.25h20c-.019531-3.324219 1.359375-6.5 3.808594-8.75 10.921875-12.0625 10.921875-30.4375 0-42.5-2.449219-2.25-3.828125-5.425781-3.808594-8.75zm0 0" fill="#0a1237"/><path d="m354 540h-20c-.0625 7.867188 2.867188 15.464844 8.191406 21.25 2.414063 2.269531 3.785156 5.433594 3.785156 8.75s-1.371093 6.480469-3.785156 8.75c-5.324218 5.785156-8.253906 13.382812-8.191406 21.25h20c-.019531-3.324219 1.359375-6.5 3.808594-8.75 10.921875-12.0625 10.921875-30.4375 0-42.5-2.449219-2.25-3.828125-5.425781-3.808594-8.75zm0 0" fill="#0a1237"/><path d="m540 290h60v20h-60zm0 0" fill="#0a1237"/><path d="m570 234c-7.867188-.0625-15.464844 2.867188-21.25 8.191406-2.25 2.449219-5.425781 3.828125-8.75 3.808594v20c7.867188.0625 15.464844-2.867188 21.25-8.191406 2.269531-2.414063 5.433594-3.785156 8.75-3.785156s6.480469 1.371093 8.75 3.785156c5.785156 5.324218 13.382812 8.253906 21.25 8.191406v-20c-3.324219.019531-6.5-1.359375-8.75-3.808594-5.785156-5.324218-13.382812-8.253906-21.25-8.191406zm0 0" fill="#0a1237"/><path d="m570 184c-7.867188-.0625-15.464844 2.867188-21.25 8.191406-2.25 2.449219-5.425781 3.828125-8.75 3.808594v20c7.867188.0625 15.464844-2.867188 21.25-8.191406 2.269531-2.414063 5.433594-3.785156 8.75-3.785156s6.480469 1.371093 8.75 3.785156c5.785156 5.324218 13.382812 8.253906 21.25 8.191406v-20c-3.324219.019531-6.5-1.359375-8.75-3.808594-5.785156-5.324218-13.382812-8.253906-21.25-8.191406zm0 0" fill="#0a1237"/><path d="m570 134c-7.867188-.0625-15.464844 2.867188-21.25 8.191406-2.25 2.449219-5.425781 3.828125-8.75 3.808594v20c7.867188.0625 15.464844-2.867188 21.25-8.191406 2.269531-2.414063 5.433594-3.785156 8.75-3.785156s6.480469 1.371093 8.75 3.785156c5.785156 5.324218 13.382812 8.253906 21.25 8.191406v-20c-3.324219.019531-6.5-1.359375-8.75-3.808594-5.785156-5.324218-13.382812-8.253906-21.25-8.191406zm0 0" fill="#0a1237"/><path d="m570 84c-7.867188-.0625-15.464844 2.867188-21.25 8.191406-2.25 2.449219-5.425781 3.828125-8.75 3.808594v20c7.867188.0625 15.464844-2.867188 21.25-8.191406 2.269531-2.414063 5.433594-3.785156 8.75-3.785156s6.480469 1.371093 8.75 3.785156c5.785156 5.324218 13.382812 8.253906 21.25 8.191406v-20c-3.324219.019531-6.5-1.359375-8.75-3.808594-5.785156-5.324218-13.382812-8.253906-21.25-8.191406zm0 0" fill="#0a1237"/><path d="m570 496c-3.324219.019531-6.5-1.359375-8.75-3.808594-5.785156-5.324218-13.382812-8.253906-21.25-8.191406v20c3.324219-.019531 6.5 1.359375 8.75 3.808594 12.0625 10.921875 30.4375 10.921875 42.5 0 2.25-2.449219 5.425781-3.828125 8.75-3.808594v-20c-7.867188-.0625-15.464844 2.867188-21.25 8.191406-2.25 2.449219-5.425781 3.828125-8.75 3.808594zm0 0" fill="#0a1237"/><path d="m570 446c-3.324219.019531-6.5-1.359375-8.75-3.808594-5.785156-5.324218-13.382812-8.253906-21.25-8.191406v20c3.324219-.019531 6.5 1.359375 8.75 3.808594 12.0625 10.921875 30.4375 10.921875 42.5 0 2.25-2.449219 5.425781-3.828125 8.75-3.808594v-20c-7.867188-.0625-15.464844 2.867188-21.25 8.191406-2.25 2.449219-5.425781 3.828125-8.75 3.808594zm0 0" fill="#0a1237"/><path d="m570 396c-3.324219.019531-6.5-1.359375-8.75-3.808594-5.785156-5.324218-13.382812-8.253906-21.25-8.191406v20c3.324219-.019531 6.5 1.359375 8.75 3.808594 12.0625 10.921875 30.4375 10.921875 42.5 0 2.25-2.449219 5.425781-3.828125 8.75-3.808594v-20c-7.867188-.0625-15.464844 2.867188-21.25 8.191406-2.25 2.449219-5.425781 3.828125-8.75 3.808594zm0 0" fill="#0a1237"/><path d="m570 346c-3.324219.019531-6.5-1.359375-8.75-3.808594-5.785156-5.324218-13.382812-8.253906-21.25-8.191406v20c3.324219-.019531 6.5 1.359375 8.75 3.808594 12.0625 10.921875 30.4375 10.921875 42.5 0 2.25-2.449219 5.425781-3.828125 8.75-3.808594v-20c-7.867188-.0625-15.464844 2.867188-21.25 8.191406-2.25 2.449219-5.425781 3.828125-8.75 3.808594zm0 0" fill="#0a1237"/><path d="m0 290h60v20h-60zm0 0" fill="#0a1237"/><path d="m30 234c-7.867188-.0625-15.464844 2.867188-21.25 8.191406-2.25 2.449219-5.425781 3.828125-8.75 3.808594v20c7.867188.0625 15.464844-2.867188 21.25-8.191406 2.269531-2.414063 5.433594-3.785156 8.75-3.785156s6.480469 1.371093 8.75 3.785156c5.785156 5.324218 13.382812 8.253906 21.25 8.191406v-20c-3.324219.019531-6.5-1.359375-8.75-3.808594-5.785156-5.324218-13.382812-8.253906-21.25-8.191406zm0 0" fill="#0a1237"/><path d="m30 184c-7.867188-.0625-15.464844 2.867188-21.25 8.191406-2.25 2.449219-5.425781 3.828125-8.75 3.808594v20c7.867188.0625 15.464844-2.867188 21.25-8.191406 2.269531-2.414063 5.433594-3.785156 8.75-3.785156s6.480469 1.371093 8.75 3.785156c5.785156 5.324218 13.382812 8.253906 21.25 8.191406v-20c-3.324219.019531-6.5-1.359375-8.75-3.808594-5.785156-5.324218-13.382812-8.253906-21.25-8.191406zm0 0" fill="#0a1237"/><path d="m30 134c-7.867188-.0625-15.464844 2.867188-21.25 8.191406-2.25 2.449219-5.425781 3.828125-8.75 3.808594v20c7.867188.0625 15.464844-2.867188 21.25-8.191406 2.269531-2.414063 5.433594-3.785156 8.75-3.785156s6.480469 1.371093 8.75 3.785156c5.785156 5.324218 13.382812 8.253906 21.25 8.191406v-20c-3.324219.019531-6.5-1.359375-8.75-3.808594-5.785156-5.324218-13.382812-8.253906-21.25-8.191406zm0 0" fill="#0a1237"/><path d="m30 84c-7.867188-.0625-15.464844 2.867188-21.25 8.191406-2.25 2.449219-5.425781 3.828125-8.75 3.808594v20c7.867188.0625 15.464844-2.867188 21.25-8.191406 2.269531-2.414063 5.433594-3.785156 8.75-3.785156s6.480469 1.371093 8.75 3.785156c5.785156 5.324218 13.382812 8.253906 21.25 8.191406v-20c-3.324219.019531-6.5-1.359375-8.75-3.808594-5.785156-5.324218-13.382812-8.253906-21.25-8.191406zm0 0" fill="#0a1237"/><path d="m30 496c-3.324219.019531-6.5-1.359375-8.75-3.808594-5.785156-5.324218-13.382812-8.253906-21.25-8.191406v20c3.324219-.019531 6.5 1.359375 8.75 3.808594 5.785156 5.324218 13.382812 8.253906 21.25 8.191406 7.867188.0625 15.464844-2.867188 21.25-8.191406 2.25-2.449219 5.425781-3.828125 8.75-3.808594v-20c-7.867188-.0625-15.464844 2.867188-21.25 8.191406-2.25 2.449219-5.425781 3.828125-8.75 3.808594zm0 0" fill="#0a1237"/><path d="m30 446c-3.324219.019531-6.5-1.359375-8.75-3.808594-5.785156-5.324218-13.382812-8.253906-21.25-8.191406v20c3.324219-.019531 6.5 1.359375 8.75 3.808594 5.785156 5.324218 13.382812 8.253906 21.25 8.191406 7.867188.0625 15.464844-2.867188 21.25-8.191406 2.25-2.449219 5.425781-3.828125 8.75-3.808594v-20c-7.867188-.0625-15.464844 2.867188-21.25 8.191406-2.25 2.449219-5.425781 3.828125-8.75 3.808594zm0 0" fill="#0a1237"/><path d="m30 396c-3.324219.019531-6.5-1.359375-8.75-3.808594-5.785156-5.324218-13.382812-8.253906-21.25-8.191406v20c3.324219-.019531 6.5 1.359375 8.75 3.808594 5.785156 5.324218 13.382812 8.253906 21.25 8.191406 7.867188.0625 15.464844-2.867188 21.25-8.191406 2.25-2.449219 5.425781-3.828125 8.75-3.808594v-20c-7.867188-.0625-15.464844 2.867188-21.25 8.191406-2.25 2.449219-5.425781 3.828125-8.75 3.808594zm0 0" fill="#0a1237"/><path d="m30 346c-3.324219.019531-6.5-1.359375-8.75-3.808594-5.785156-5.324218-13.382812-8.253906-21.25-8.191406v20c3.324219-.019531 6.5 1.359375 8.75 3.808594 5.785156 5.324218 13.382812 8.253906 21.25 8.191406 7.867188.0625 15.464844-2.867188 21.25-8.191406 2.25-2.449219 5.425781-3.828125 8.75-3.808594v-20c-7.867188-.0625-15.464844 2.867188-21.25 8.191406-2.25 2.449219-5.425781 3.828125-8.75 3.808594zm0 0" fill="#0a1237"/><path d="m20 30c0-5.523438 4.476562-10 10-10h20v-20h-20c-16.566406 0-30 13.433594-30 30v20h20zm0 0" fill="#0a1237"/><path d="m570 0h-20v20h20c5.523438 0 10 4.476562 10 10v20h20v-20c0-16.566406-13.433594-30-30-30zm0 0" fill="#0a1237"/><path d="m580 570c0 5.523438-4.476562 10-10 10h-20v20h20c16.566406 0 30-13.433594 30-30v-20h-20zm0 0" fill="#0a1237"/><path d="m20 570v-20h-20v20c0 16.566406 13.433594 30 30 30h20v-20h-20c-5.523438 0-10-4.476562-10-10zm0 0" fill="#0a1237"/></svg>
