<?xml version="1.0"?>
<svg xmlns="http://www.w3.org/2000/svg" height="512px" viewBox="0 -16 480 480" width="512px"><path d="m152 0h176v72h-176zm0 0" fill="#0a1237"/><path d="m152 376h176v72h-176zm0 0" fill="#0a1237"/><path d="m262.625 171.574219-16.96875 16.960937c-3.125 3.125-8.1875 3.125-11.3125 0l-16.960938-16.960937c-5.992187-6.039063-14.152343-9.429688-22.664062-9.414063-17.636719.082032-31.914062 14.359375-32 32-.003906 8.5 3.386719 16.652344 9.417969 22.640625l67.863281 67.886719 67.863281-67.886719c6.023438-5.984375 9.410157-14.125 9.410157-22.617187 0-8.492188-3.386719-16.632813-9.410157-22.617188-12.625-12.167968-32.617187-12.164062-45.238281.007813zm0 0" fill="#0a1237"/><path d="m472 176h-16c-3.273438 0-6.21875 1.992188-7.433594 5.03125l-24.421875 61.066406-32.671875-84.96875c-1.097656-3.15625-4.136718-5.21875-7.472656-5.074218v30.226562l32.527344 84.589844c1.183594 3.074218 4.125 5.109375 7.417968 5.128906h.054688c3.273438 0 6.21875-1.992188 7.433594-5.03125l29.980468-74.96875h10.585938c4.417969 0 8-3.582031 8-8s-3.582031-8-8-8zm0 0" fill="#0a1237"/><path d="m76.640625 270.792969-20.710937-151.871094c-.515626-3.835937-3.699219-6.753906-7.566407-6.929687-3.863281-.179688-7.300781 2.4375-8.164062 6.207031l-22.558594 97.800781h-9.640625c-4.417969 0-8 3.582031-8 8s3.582031 8 8 8h16c3.726562.003906 6.960938-2.570312 7.800781-6.199219l14.175781-61.449219 18.09375 132.726563c.46875 3.425781 3.082032 6.160156 6.480469 6.785156.476563.09375.964844.140625 1.449219.136719 2.925781 0 5.621094-1.597656 7.023438-4.167969l16.976562-31.128906v-33.40625zm0 0" fill="#0a1237"/><path d="m376 112c0-13.253906-10.746094-24-24-24h-224c-13.253906 0-24 10.746094-24 24v108.625l8.976562-16.457031c1.402344-2.570313 4.097657-4.167969 7.023438-4.167969h27.113281c-.25-1.953125-.378906-3.917969-.394531-5.886719.023438-19.414062 11.738281-36.902343 29.683594-44.308593 17.941406-7.410157 38.582031-3.28125 52.292968 10.460937l11.304688 11.300781 11.304688-11.300781c13.726562-13.703125 34.34375-17.804687 52.269531-10.402344 17.925781 7.402344 29.644531 24.855469 29.707031 44.25-.015625 1.96875-.144531 3.933594-.394531 5.886719h7.371093l35.742188-42.894531zm0 0" fill="#0a1237"/><path d="m344 216h-16c-2.285156 4.476562-5.253906 8.570312-8.800781 12.136719l-73.519531 73.519531c-3.125 3.121094-8.1875 3.121094-11.3125 0l-73.519532-73.519531c-3.5625-3.5625-6.546875-7.65625-8.847656-12.136719h-27.246094l-20.753906 38.039062v81.960938c0 13.253906 10.746094 24 24 24h224c13.253906 0 24-10.746094 24-24v-153.902344l-25.855469 31.03125c-1.519531 1.820313-3.773437 2.871094-6.144531 2.871094zm0 0" fill="#0a1237"/></svg>
