<?xml version="1.0"?>
<svg xmlns="http://www.w3.org/2000/svg" height="512px" viewBox="0 0 464 464" width="512px"><path d="m275.679688 173.855469-17.296876 8.648437-3.460937-1.550781c-.992187-.441406-1.992187-.839844-3.027344-1.234375l-3.542969-1.34375-6.121093-18.367188h-20.46875l-6.121094 18.367188-3.542969 1.34375c-1.035156.394531-2.035156.800781-3.027344 1.234375l-3.460937 1.550781-17.296875-8.648437-14.472656 14.472656 8.648437 17.296875-1.550781 3.464844c-.441406.988281-.839844 1.988281-1.234375 3.023437l-1.34375 3.542969-18.359375 6.113281v20.46875l18.367188 6.121094 1.34375 3.542969c.394531 1.035156.800781 2.035156 1.234374 3.027344l1.550782 3.460937-8.648438 17.296875 14.472656 14.472656 17.296876-8.648437 3.460937 1.550781c.992187.441406 1.992187.839844 3.027344 1.234375l3.542969 1.34375 6.121093 18.367187h20.46875l6.121094-18.367187 3.542969-1.34375c1.035156-.394531 2.035156-.800781 3.027344-1.234375l3.460937-1.550781 17.296875 8.648437 14.472656-14.472656-8.648437-17.296875 1.550781-3.460937c.441406-.992188.839844-1.992188 1.234375-3.027344l1.34375-3.542969 18.359375-6.121094v-20.46875l-18.367188-6.121093-1.34375-3.542969c-.394531-1.035157-.800781-2.035157-1.234374-3.027344l-1.550782-3.460937 8.648438-17.296876zm-43.679688 98.144531c-22.054688 0-40-17.945312-40-40s17.945312-40 40-40 40 17.945312 40 40-17.945312 40-40 40zm0 0" fill="#0a1237"/><path d="m256 232c0 13.253906-10.746094 24-24 24s-24-10.746094-24-24 10.746094-24 24-24 24 10.746094 24 24zm0 0" fill="#0a1237"/><path d="m80 152c0 4.417969-3.582031 8-8 8s-8-3.582031-8-8 3.582031-8 8-8 8 3.582031 8 8zm0 0" fill="#0a1237"/><path d="m203.6875 300.351562-18.519531 9.265626-30.785157-30.785157 9.265626-18.519531-19.648438-6.542969v-43.53125l19.648438-6.542969-9.265626-18.519531 30.785157-30.785156 18.519531 9.265625 6.542969-19.648438h13.769531v-32h-16v-32h-16v32h-32v-32h-16v32h-32v-32h-16v32h-32v-32h-16v35.3125l-12.6875 12.6875h-35.3125v16h32v32h-32v16h32v32h-32v16h32v32h-32v16h32v32h-32v16h32v16h16v32h16v-32h32v32h16v-32h32v32h16v-32h32v32h16v-32h16v-32h-13.769531zm-91.6875-172.351562h80v16h-80zm-40 0c13.230469 0 24 10.769531 24 24s-10.769531 24-24 24-24-10.769531-24-24 10.769531-24 24-24zm120 208h-144v-144h16v128h128zm0 0" fill="#0a1237"/><path d="m464 232c0-36.160156-21.824219-67.191406-53.007812-80.726562 12.871093-11.714844 21.007812-28.539063 21.007812-47.273438 0-35.289062-28.710938-64-64-64-3.398438 0-6.976562.328125-10.929688 1.007812l-6.46875 1.121094-2.355468-6.136718c-8.253906-21.527344-29.253906-35.992188-52.246094-35.992188-30.871094 0-56 25.128906-56 56v88h13.769531l6.542969 19.648438 18.519531-9.265626 30.785157 30.785157-9.265626 18.519531 19.648438 6.550781v43.53125l-19.648438 6.542969 9.265626 18.519531-30.785157 30.785157-18.519531-9.265626-6.542969 19.648438h-13.769531v88c0 30.871094 25.128906 56 56 56 25.414062 0 46.902344-17.039062 53.710938-40.289062 23.578124-1.855469 43.90625-15.046876 55.625-34.144532.023437-.03125.039062-.070312.0625-.101562 3.523437-5.753906 6.242187-12.023438 8.042968-18.6875.246094-.914063.496094-1.824219.710938-2.753906.230468-1.023438.441406-2.054688.632812-3.09375.230469-1.273438.414063-2.554688.582032-3.839844.105468-.824219.226562-1.648438.304687-2.480469.199219-2.183594.328125-4.386719.328125-6.609375 0-2.6875-.167969-5.359375-.464844-8.007812-.144531-1.328126-.414062-2.609376-.640625-3.914063-.207031-1.246094-.375-2.503906-.65625-3.734375-.398437-1.800781-.925781-3.542969-1.460937-5.289062-.210938-.679688-.378906-1.367188-.609375-2.046876-.664063-1.976562-1.457031-3.878906-2.28125-5.777343-.152344-.351563-.261719-.71875-.421875-1.070313l-.480469-1.054687c-.183594-.386719-.335937-.777344-.527344-1.152344l-2.289062-5 .121093-.425781c33.65625-12.34375 57.710938-44.582032 57.710938-82.527344zm-168-200c-13.230469 0-24 10.769531-24 24h-16c0-22.054688 17.945312-40 40-40zm0 416c-22.054688 0-40-17.945312-40-40h16c0 13.230469 10.769531 24 24 24zm8-296v-16c13.230469 0 24-10.769531 24-24s-10.769531-24-24-24v-16c22.054688 0 40 17.945312 40 40s-17.945312 40-40 40zm88.96875 120.96875c-7.542969 7.550781-17.59375 11.71875-28.28125 11.71875s-20.734375-4.167969-28.28125-11.71875l11.3125-11.3125c9.066406 9.0625 24.875 9.0625 33.9375 0 4.527344-4.527344 7.03125-10.550781 7.03125-16.96875 0-6.414062-2.496094-12.441406-7.03125-16.96875l11.3125-11.3125c7.550781 7.546875 11.71875 17.59375 11.71875 28.28125s-4.167969 20.738281-11.71875 28.28125zm7.03125-168.96875c0-17.648438-14.351562-32-32-32v-16c26.472656 0 48 21.527344 48 48zm0 0" fill="#0a1237"/></svg>
