<?xml version="1.0" encoding="iso-8859-1"?>
<!-- Generator: Adobe Illustrator 19.0.0, SVG Export Plug-In . SVG Version: 6.00 Build 0)  -->
<svg xmlns="http://www.w3.org/2000/svg" xmlns:xlink="http://www.w3.org/1999/xlink" version="1.1" id="Layer_1" x="0px" y="0px" viewBox="0 0 469.333 469.333" style="enable-background:new 0 0 469.333 469.333;" xml:space="preserve" width="512px" height="512px">
<g>
	<g>
		<g>
			<circle cx="32" cy="96" r="32" fill="#0a1237"/>
			<path d="M437.333,213.333h-320c-17.646,0-32,14.354-32,32V288c0,17.646,14.354,32,32,32h320c17.646,0,32-14.354,32-32v-42.667     C469.333,227.687,454.979,213.333,437.333,213.333z M149.333,277.333c0,5.896-4.771,10.667-10.667,10.667     S128,283.229,128,277.333V256c0-5.896,4.771-10.667,10.667-10.667s10.667,4.771,10.667,10.667V277.333z M192,277.333     c0,5.896-4.771,10.667-10.667,10.667c-5.896,0-10.667-4.771-10.667-10.667V256c0-5.896,4.771-10.667,10.667-10.667     c5.896,0,10.667,4.771,10.667,10.667V277.333z M234.667,277.333c0,5.896-4.771,10.667-10.667,10.667     c-5.896,0-10.667-4.771-10.667-10.667V256c0-5.896,4.771-10.667,10.667-10.667c5.896,0,10.667,4.771,10.667,10.667V277.333z      M341.333,288C329.563,288,320,278.427,320,266.667c0-11.76,9.563-21.333,21.333-21.333s21.333,9.573,21.333,21.333     C362.667,278.427,353.104,288,341.333,288z M405.333,288C393.563,288,384,278.427,384,266.667     c0-11.76,9.563-21.333,21.333-21.333s21.333,9.573,21.333,21.333C426.667,278.427,417.104,288,405.333,288z" fill="#0a1237"/>
			<path d="M437.333,341.333h-320c-17.646,0-32,14.354-32,32V416c0,17.646,14.354,32,32,32h320c17.646,0,32-14.354,32-32v-42.667     C469.333,355.688,454.979,341.333,437.333,341.333z M149.333,405.333c0,5.896-4.771,10.667-10.667,10.667     S128,411.229,128,405.333V384c0-5.896,4.771-10.667,10.667-10.667s10.667,4.771,10.667,10.667V405.333z M192,405.333     c0,5.896-4.771,10.667-10.667,10.667c-5.896,0-10.667-4.771-10.667-10.667V384c0-5.896,4.771-10.667,10.667-10.667     c5.896,0,10.667,4.771,10.667,10.667V405.333z M234.667,405.333c0,5.896-4.771,10.667-10.667,10.667     c-5.896,0-10.667-4.771-10.667-10.667V384c0-5.896,4.771-10.667,10.667-10.667c5.896,0,10.667,4.771,10.667,10.667V405.333z      M341.333,416C329.563,416,320,406.427,320,394.667c0-11.76,9.563-21.333,21.333-21.333s21.333,9.573,21.333,21.333     C362.667,406.427,353.104,416,341.333,416z M405.333,416C393.563,416,384,406.427,384,394.667     c0-11.76,9.563-21.333,21.333-21.333s21.333,9.573,21.333,21.333C426.667,406.427,417.104,416,405.333,416z" fill="#0a1237"/>
			<path d="M117.333,192h277.333c5.896,0,10.667-4.771,10.667-10.667V96V32c0-5.896-4.771-10.667-10.667-10.667H32     c-5.896,0-10.667,4.771-10.667,10.667c0,5.896,4.771,10.667,10.667,10.667c29.417,0,53.333,23.927,53.333,53.333     c0,7.573-1.729,15.104-5.125,22.385c-0.014,0.03-0.003,0.063-0.016,0.092C71.681,136.642,53.357,149.333,32,149.333     c-5.896,0-10.667,4.771-10.667,10.667v117.333c0,20.104,13.729,37.208,33.354,41.594c0.771,0.177,1.563,0.26,2.333,0.26     c3.021,0,5.938-1.281,7.979-3.583c2.563-2.896,3.375-6.969,2.083-10.625C65,299.083,64,293.531,64,288v-42.667     C64,215.927,87.917,192,117.333,192z M377.75,42.667H384v42.667h-48.917L377.75,42.667z M249.75,42.667h33.833l-42.667,42.667     h-33.833L249.75,42.667z M121.75,42.667h33.833l-42.667,42.667h-7.052c-1.063-7.042-3.156-13.969-6.24-20.542L121.75,42.667z" fill="#0a1237"/>
		</g>
	</g>
</g>
<g>
</g>
<g>
</g>
<g>
</g>
<g>
</g>
<g>
</g>
<g>
</g>
<g>
</g>
<g>
</g>
<g>
</g>
<g>
</g>
<g>
</g>
<g>
</g>
<g>
</g>
<g>
</g>
<g>
</g>
</svg>
