<?xml version="1.0"?>
<svg xmlns="http://www.w3.org/2000/svg" height="512px" viewBox="0 -92 511.99868 511" width="512px"><path d="m257.464844 248.621094c-4.617188-.914063-8.964844 2.613281-8.964844 7.351562 0 4.082032 3.300781 7.503906 7.503906 7.503906 4.160156 0 7.503906-3.394531 7.503906-7.503906 0-3.3125-2.257812-6.566406-6.042968-7.351562zm0 0" fill="#172b69"/><path d="m274.027344.515625c-4.136719-.28125-7.71875 2.832031-8.003906 6.964844-.289063 4.132812 2.828124 7.71875 6.964843 8.007812 124.003907 8.628907 220.195313 108.738281 223.988281 232.984375h-13.457031c-3.933593-122.242187-104.089843-220.148437-227.519531-220.148437-123.316406 0-223.582031 97.789062-227.519531 220.148437h-13.457031c3.792968-124.242187 99.984374-224.355468 223.992187-232.984375 4.132813-.289062 7.25-3.875 6.960937-8.007812-.285156-4.132813-3.882812-7.246094-8.003906-6.964844-130.769531 9.101563-234.253906 116.238281-237.96874975 248.128906-.22656225 8.136719 6.31640575 14.835938 14.45312475 14.835938h170.300781c.230469 2.179687.554688 4.339843.976563 6.476562 6.546875 33.0625 35.683594 57.648438 70.265625 57.648438 36.863281 0 67.46875-27.925781 71.238281-64.125h170.304688c8.140625 0 14.679687-6.699219 14.449219-14.835938-3.714844-132.101562-107.414063-239.042969-237.964844-248.128906zm52.703125 247.957031c-7.464844 0-13.648438 5.644532-14.382813 13.128906-2.863281 29.074219-27.085937 51-56.347656 51-29.257812 0-53.484375-21.925781-56.347656-51-.734375-7.480468-6.917969-13.128906-14.382813-13.128906h-28.746093c3.851562-51.515625 46.996093-92.253906 99.476562-92.253906 10.78125 0 21.300781 1.691406 31.375 5.035156l-31.878906 55.21875c-21.554688.273438-39.011719 17.882813-39.011719 39.503906 0 21.789063 17.726563 39.519532 39.515625 39.519532 13.375 0 25.738281-6.695313 33.078125-17.902344 2.269531-3.464844 1.300781-8.117188-2.167969-10.386719s-8.121094-1.300781-10.386718 2.167969c-4.554688 6.957031-12.226563 11.113281-20.523438 11.113281-13.515625 0-24.507812-10.996093-24.507812-24.511719 0-13.515624 10.992187-24.511718 24.507812-24.511718 8.5 0 16.15625 4.441406 20.523438 11.113281 2.269531 3.46875 6.921874 4.4375 10.386718 2.167969 2.667969-1.746094 3.851563-4.902344 3.222656-7.84375l32.074219-55.554688c19.5625 17.289063 31.371094 41.089844 33.28125 67.125zm-6.082031-114.835937c1.386718-2.402344 4.382812-3.253907 6.824218-1.945313 2.535156 1.359375 3.449219 4.542969 2.007813 7.042969l-15.875 27.492187c-3.476563 6.023438-29.90625 51.800782-33.667969 58.316407-2.710938-2.0625-5.515625-3.699219-8.839844-5.085938zm49.871093 114.835937c-1.996093-31.410156-16.5-60.082031-40.679687-80.351562l12.636718-21.882813c5.683594-9.84375 2.097657-22.402343-7.914062-27.773437-9.628906-5.160156-21.449219-1.792969-26.910156 7.667968l-12.640625 21.894532c-12.480469-4.519532-25.570313-6.816406-39.011719-6.816406-60.757812 0-110.632812 47.464843-114.511719 107.261718h-98.003906c1.15625-33.234375 9.988281-64.546875 24.757813-92.234375l12.84375 7.417969c3.59375 2.074219 8.179687.839844 10.25-2.746094 2.074218-3.589844.84375-8.179687-2.746094-10.25l-12.820313-7.402344c17.117188-27.269531 40.238281-50.40625 67.503907-67.519531l7.410156 12.828125c2.074218 3.59375 6.664062 4.816406 10.25 2.746094 3.585937-2.070312 4.816406-6.660156 2.746094-10.246094l-7.421876-12.851562c27.6875-14.769532 59.007813-23.578125 92.238282-24.738282v14.859376c0 4.144531 3.359375 7.503906 7.503906 7.503906s7.503906-3.359375 7.503906-7.503906v-14.859376c33.230469 1.160157 64.550782 9.96875 92.238282 24.738282l-7.417969 12.851562c-2.074219 3.585938-.84375 8.175782 2.746093 10.246094 3.589844 2.074219 8.179688.84375 10.246094-2.746094l7.410156-12.828125c27.269532 17.117188 50.390626 40.25 67.503907 67.519531l-12.820313 7.402344c-3.589844 2.070313-4.820312 6.660156-2.746094 10.25 2.074219 3.59375 6.664063 4.816406 10.25 2.746094l12.84375-7.417969c14.765626 27.691407 23.597657 59.003907 24.757813 92.238281h-97.996094zm0 0" fill="#172b69"/></svg>
