<?xml version="1.0"?>
<svg xmlns="http://www.w3.org/2000/svg" height="512px" viewBox="0 0 448 448" width="512px"><path d="m0 416v24c0 4.417969 3.582031 8 8 8h432c4.417969 0 8-3.582031 8-8v-24h-192v8c0 4.417969-3.582031 8-8 8h-48c-4.417969 0-8-3.582031-8-8v-8zm0 0" fill="#0a1237"/><path d="m424 128h-96v80h-16v-200c0-4.417969-3.582031-8-8-8h-160c-4.417969 0-8 3.582031-8 8v40h144v16h-144v144h-16v-80h-96c-4.417969 0-8 3.582031-8 8v264h416v-264c0-4.417969-3.582031-8-8-8zm-240-96h-16v-16h16zm48 0h-32v-16h32zm-144 336h-32c-4.417969 0-8-3.582031-8-8v-32h16v24h24zm88-56h-32v-16h32zm16-156.71875-20.71875 20.71875h4.71875c4.417969 0 8 3.582031 8 8v88h-16v-80h-16c-3.238281.011719-6.15625-1.953125-7.359375-4.960938-1.253906-2.976562-.589844-6.417968 1.679687-8.71875l40-40c3.144532-3.121093 8.214844-3.121093 11.359376 0l40 40c2.269531 2.300782 2.933593 5.742188 1.679687 8.71875-1.203125 3.007813-4.121094 4.972657-7.359375 4.960938h-16v80h-16v-88c0-4.417969 3.582031-8 8-8h4.71875zm48 156.71875h-32v-16h32zm64 0h-32v-16h32zm13.679688-82.320312-40 40c-3.15625 3.09375-8.203126 3.09375-11.359376 0l-40-40c-2.269531-2.300782-2.933593-5.742188-1.679687-8.71875 1.203125-3.007813 4.121094-4.972657 7.359375-4.960938h16v-80h16v88c0 4.417969-3.582031 8-8 8h-4.71875l20.71875 20.71875 20.71875-20.71875h-4.71875c-4.417969 0-8-3.582031-8-8v-88h16v80h16c3.238281-.011719 6.15625 1.953125 7.359375 4.960938 1.253906 2.976562.589844 6.417968-1.679687 8.71875zm82.320312-21.679688h-16v-24h-24v-16h32c4.417969 0 8 3.582031 8 8zm0 0" fill="#0a1237"/></svg>
